<svg xmlns="http://www.w3.org/2000/svg" version="1.1" xmlns:xlink="http://www.w3.org/1999/xlink" width="1000" height="1000"><g clip-path="url(#SvgjsClipPath1068)"><rect width="1000" height="1000" fill="#603cba"></rect><g transform="matrix(0.8523047129126636,0,0,0.8523047129126636,0,0)"><svg xmlns="http://www.w3.org/2000/svg" version="1.1" xmlns:xlink="http://www.w3.org/1999/xlink" width="1173.2893" height="1173.2893"><svg style="isolation:isolate" viewBox="712 120.033 879.96694 879.967" width="1173.2893" height="1173.2893" version="1.1" id="svg1" sodipodi:docname="financial-wreck-favicon.svg" inkscape:version="1.4.3 (0d15f75042, 2025-12-25)" xmlns:inkscape="http://www.inkscape.org/namespaces/inkscape" xmlns:sodipodi="http://sodipodi.sourceforge.net/DTD/sodipodi-0.dtd" xmlns="http://www.w3.org/2000/svg" xmlns:svg="http://www.w3.org/2000/svg">
  <sodipodi:namedview id="namedview1" pagecolor="#ffffff" bordercolor="#000000" borderopacity="0.25" inkscape:showpageshadow="2" inkscape:pageopacity="0.0" inkscape:pagecheckerboard="true" inkscape:deskcolor="#d1d1d1" inkscape:document-units="px" inkscape:zoom="0.63837623" inkscape:cx="379.87004" inkscape:cy="586.64465" inkscape:window-width="1920" inkscape:window-height="989" inkscape:window-x="1920" inkscape:window-y="0" inkscape:window-maximized="1" inkscape:current-layer="svg1"></sodipodi:namedview>
  <defs id="defs1">
    <clipPath id="_clipPath_4UhUvCS7tFeqhj2WgTzPg6Tp5zswsicN">
      <rect x="712" y="120.033" width="571.53802" height="879.96698" id="rect1"></rect>
    </clipPath>
  <clipPath id="SvgjsClipPath1068"><rect width="1000" height="1000" x="0" y="0" rx="0" ry="0"></rect></clipPath></defs>
  <g clip-path="url(#_clipPath_4UhUvCS7tFeqhj2WgTzPg6Tp5zswsicN)" id="g1" transform="translate(154.21449)">
    <path d="M 830.217,120.033 712,434.108 917.072,333.557 779.977,517.446 l 140.75,-1.759 -89.892,95.661 160.569,38.018 -139.216,69.365 71.108,57.767 L 821.597,810.891 1039.948,1000 906.763,833.979 1032.576,796.524 925.332,718.507 1283.538,613.283 898.95,595.316 1090.396,453.532 852.026,484.803 1145.378,159.569 803.35,344.639 830.217,120.033" fill="#ffffff" id="path1"></path>
  </g>
</svg></svg></g></g></svg>